# xmcd
#
# Track frame offsets:
#	150
#	16688
#	28648
#	43968
#	53451
#	57059
#	66874
#	73797
#	78818
#	95356
#	107316
#	122636
#	132119
#	135727
#	145542
#	152465
#
# Disc length: 2099 seconds
#
# Revision: 1
# Processed by: cddbd v1.5.2PL0 Copyright (c) Steve Scherf et al.
# Submitted via: audiograbber 1.83.01
#
DISCID=c2083110
DTITLE=Forever Hits Karaoke - FH8905
DYEAR=1900
DGENRE=karaoke
TTITLE0=Harold Melvin and Bluenotes - If You Don't Know Me By Now
TTITLE1=Drifters - Save The Last Dance For Me
TTITLE2=Flamingos - I Only Have Eyes For You
TTITLE3=Various Artist - On Top Of Old Smokey
TTITLE4=Various Artist - Georgie Porgie
TTITLE5=Various Artist - Old Time Religion
TTITLE6=Various Artist - Jimmy Crack Corn
TTITLE7=Various Artist - Home On The Range
TTITLE8=Harold Melvin and Bluenotes - If You Don't Know Me By Now
TTITLE9=Drifters - Save The Last Dance For Me
TTITLE10=Flamingos - I Only Have Eyes For You
TTITLE11=Various Artist - On Top Of Old Smokey
TTITLE12=Various Artist - Georgie Porgie
TTITLE13=Various Artist - Old Time Religion
TTITLE14=Various Artist - Jimmy Crack Corn
TTITLE15=Various Artist - Home On The Range
EXTD=
EXTT0=
EXTT1=
EXTT2=
EXTT3=
EXTT4=
EXTT5=
EXTT6=
EXTT7=
EXTT8=
EXTT9=
EXTT10=
EXTT11=
EXTT12=
EXTT13=
EXTT14=
EXTT15=
PLAYORDER=
